inDegrees=no
num_controls=7
num_derivatives=13
num_iterations=84
num_multipliers=7
num_parameters=0
num_slacks=7
num_states=26
objective=4.960442
objective_accelerations=0.532643
objective_balance=0.018549
objective_effort=0.147617
objective_height=4.210406
objective_ligament=0.051227
solver_duration=931.285301
status=Solve_Succeeded
success=true
DataType=double
version=3
OpenSimVersion=4.4-2022-07-23-0e9fedc
endheader
time	/jointset/ground_pelvis/pelvis_tilt/value	/jointset/ground_pelvis/pelvis_tx/value	/jointset/ground_pelvis/pelvis_ty/value	/jointset/hip_l/hip_flexion_l/value	/jointset/hip_l/hip_adduction_l/value	/jointset/hip_l/hip_rotation_l/value	/jointset/back/lumbar_extension/value	/jointset/patellofemoral_l/patellar_flexion_l/value	/jointset/knee_l/knee_flexion_l/value	/jointset/knee_l/knee_adduction_l/value	/jointset/knee_l/knee_rotation_l/value	/jointset/ankle_l/ankle_angle_l/value	/jointset/subtalar_l/subtalar_angle_l/value	/jointset/ground_pelvis/pelvis_tilt/speed	/jointset/ground_pelvis/pelvis_tx/speed	/jointset/ground_pelvis/pelvis_ty/speed	/jointset/hip_l/hip_flexion_l/speed	/jointset/hip_l/hip_adduction_l/speed	/jointset/hip_l/hip_rotation_l/speed	/jointset/back/lumbar_extension/speed	/jointset/patellofemoral_l/patellar_flexion_l/speed	/jointset/knee_l/knee_flexion_l/speed	/jointset/knee_l/knee_adduction_l/speed	/jointset/knee_l/knee_rotation_l/speed	/jointset/ankle_l/ankle_angle_l/speed	/jointset/subtalar_l/subtalar_angle_l/speed	/forceset/tau_hip_flexion_l	/forceset/tau_hip_adduction_l	/forceset/tau_hip_rotation_l	/forceset/tau_knee_flexion_l	/forceset/tau_ankle_angle_l	/forceset/tau_subtalar_angle_l	/forceset/tau_lumbar_extension	lambda_cid13_p0	lambda_cid13_p1	lambda_cid13_p2	lambda_cid13_p3	lambda_cid13_p4	lambda_cid13_p5	lambda_cid14_p0	/jointset/ground_pelvis/pelvis_tilt/accel	/jointset/ground_pelvis/pelvis_tx/accel	/jointset/ground_pelvis/pelvis_ty/accel	/jointset/hip_l/hip_flexion_l/accel	/jointset/hip_l/hip_adduction_l/accel	/jointset/hip_l/hip_rotation_l/accel	/jointset/back/lumbar_extension/accel	/jointset/patellofemoral_l/patellar_flexion_l/accel	/jointset/knee_l/knee_flexion_l/accel	/jointset/knee_l/knee_adduction_l/accel	/jointset/knee_l/knee_rotation_l/accel	/jointset/ankle_l/ankle_angle_l/accel	/jointset/subtalar_l/subtalar_angle_l/accel	gamma_cid13_p0	gamma_cid13_p1	gamma_cid13_p2	gamma_cid13_p3	gamma_cid13_p4	gamma_cid13_p5	gamma_cid14_p0
1	-0.3728439055615299	0.02733229459638644	0.6661440472481841	1.416777008885737	-0.3650099152471866	0.1204413483692719	-0.4363232554849868	1.321347833106848	1.321347833108366	-0.01714747730505747	-0.1744994965508098	0.4348209382315324	0.2191860243451537	-0.1315953766606802	0.002665639145058526	0.02858924921803319	0.0289567149913859	0.001368402476789951	-0.056078017849747	-0.0005680868258186597	-0.1495635823252844	-0.1495635823252247	-0.001029693784042861	-0.0002203939796425929	-0.05957074307532818	-0.03097810837935632	-0.1985304259758845	0.04793819401478792	-0.001475070854406918	-0.2583515514282184	-0.05679723928923529	0.01272203636797874	0.1839935449783876	-48.13947928375013	5.829051658175052	-4.551782947436982	5.07065987032256	-523.501954535857	-66.78799918906088	-0.02483731878527216	1.42265803021542	0.2339856939467008	1.535472435993182	-5.449734654152993	-0.1338675551612024	-1.514068136700944	-0.01655234656317667	-4.811581057246028	-4.811581057246104	-0.5147805593100423	-0.02159274061691371	-1.195202984291332	-0.8726802843147381	-1.029359007386863e-08	-7.903924361509417e-08	6.875193654654207e-08	8.530352419264389e-09	-1.26178443529393e-08	-6.524252401355716e-08	-1.329871779293976e-08
1.01	-0.3740895289434342	0.02737069820500651	0.6665065658908043	1.416795023813233	-0.3650023173703263	0.1198047481569141	-0.4363281922457721	1.319611796702618	1.319611796702967	-0.01718241278187875	-0.1745015805964901	0.4341656045538806	0.2188337466757523	-0.1175282343057918	0.00502505577215282	0.04391358006614981	-0.02537036286876898	0.0001532716502208992	-0.07124318299882416	-0.0003554075455136999	-0.197661942600271	-0.1976619426002489	-0.005958235491453914	-0.0001944814062835068	-0.07149873279977748	-0.0394679118811192	-0.1993526250386383	0.04811501098643468	-0.001520300640891071	-0.2572153696571208	-0.05747416671386142	0.01273582287998375	0.1845745078324622	-48.34474143443577	5.813033845361093	-4.496720110105608	5.049734544660704	-523.628777790116	-66.63728059281304	-0.02485162652845115	1.398902491786183	0.238417328859976	1.530774775060142	-5.426689456451822	-0.1150312534908009	-1.51793202567016	0.04975683020849677	-4.811696579848911	-4.81169657985402	-0.4820304295053845	0.01498450922408269	-1.192014405583041	-0.8356982125004473	-1.283023395979649e-08	-9.689341145859791e-08	8.635425738971574e-08	8.513238999601382e-09	-1.867990131783564e-08	-7.046567505104006e-08	-1.767872949428707e-08
1.02	-0.3751944488710612	0.02743299551625226	0.6670223001150697	1.416269268941511	-0.3650068098830899	0.1190164580286684	-0.4363290864640768	1.317394230082195	1.317394230081206	-0.01726666156651276	-0.1745033452658175	0.4333909074911579	0.2183968574054564	-0.1034546858043846	0.007444379670192321	0.05923236554800255	-0.07979724490904701	-0.00104967545976197	-0.08641600101426242	0.0002404223301768142	-0.2458696255642281	-0.2458696255642401	-0.01089235532080894	-0.0001565187164652392	-0.08344342008669337	-0.04790042855863048	-0.2001748240991314	0.04829182795810209	-0.001565530428467546	-0.2560791878860388	-0.0581510941388158	0.01274960939185491	0.1851554706888132	-48.55605472619027	5.797479477928134	-4.441050472616911	5.031257541005005	-523.8869045939022	-66.48229144574057	-0.02486478679560324	1.423939259519184	0.2459671481358068	1.534363362740399	-5.469695490177708	-0.1314308118440415	-1.515598709973329	0.06007777253089243	-4.833445595040074	-4.833445595039439	-0.5158961836987868	-0.01918271732529788	-1.198542496784532	-0.8612229194644972	-1.498183130388838e-08	-1.176561486077465e-07	1.052945309172236e-07	7.247025184409972e-09	-2.41674246603989e-08	-7.855828065472946e-08	-2.230124062560986e-08
1.03	-0.376158845336942	0.02751986112348995	0.6676910901588424	1.415199082889006	-0.3650232521615491	0.118076522128153	-0.436321233528539	1.314694217366309	1.31469421736547	-0.01740029374627784	-0.1745046221721029	0.4324967867615291	0.2178760450966909	-0.08944819747895102	0.009946398570827608	0.07451431231768703	-0.1342230091150357	-0.002236937202887833	-0.1015639785820861	0.00148213814396749	-0.2941340913722775	-0.2941340913722273	-0.01583651176250275	-9.766245236110554e-05	-0.09537340193635227	-0.05624462431700771	-0.2011313062081835	0.0485186409221174	-0.001623652233012466	-0.2545134296723157	-0.0590253055035708	0.01278633537995225	0.185909203453708	-48.81216652447939	5.761333942469897	-4.360997896000103	4.982677638149032	-523.9759228087586	-66.29077546231738	-0.02488205694496234	1.385465018770775	0.254968966050296	1.523404737761618	-5.426474120362657	-0.1121111880783123	-1.51334374135536	0.1790144125847771	-4.823117724197379	-4.823117724188292	-0.4840618033816271	0.01861643217500421	-1.189136384893057	-0.818399358046614	-1.7129499601635e-08	-1.384485650355242e-07	1.24248457023143e-07	5.968065446815204e-09	-2.964908541497917e-08	-8.668016640705363e-08	-2.692622624091198e-08
1.04	-0.3769838846396171	0.02763227686073888	0.6685123585510439	1.413585147747693	-0.3650515145239158	0.1169853171597337	-0.4362964042457083	1.311511525862241	1.311511525861477	-0.01758344477640149	-0.1745052711889816	0.431483584142216	0.2172723145395391	-0.07558325316487129	0.01255440567244234	0.08972803523464717	-0.188547062703132	-0.003413692247296627	-0.1166698145966269	0.003635691028891164	-0.3424053832007372	-0.3424053832006284	-0.02079612536324933	-3.094083239633488e-05	-0.1072597980194822	-0.06448407823628018	-0.2020877883160137	0.04874545388633515	-0.001681774039524541	-0.2529476714585966	-0.05989951686843896	0.01282306136835333	0.1866629362198266	-49.07451140783575	5.725793132004773	-4.280486033724541	4.935958151760996	-524.1981607758894	-66.09524609892652	-0.02489773367460745	1.39563045724838	0.267164788331745	1.520718592195526	-5.449353366599273	-0.1293294721006938	-1.507170399316922	0.2424451867499756	-4.834810799122098	-4.834810799122153	-0.5189876155092868	-0.01760964615341148	-1.189825343478651	-0.8402745516436425	-1.812962819377455e-08	-1.604832175578282e-07	1.42041781326811e-07	2.114455897830695e-09	-3.320084812636718e-08	-9.699560044735461e-08	-3.154156496633891e-08
1.05	-0.3776711015869783	0.02777128166392302	0.6694852818974577	1.411428925526235	-0.3650914640744245	0.1157434111206842	-0.4362455224651838	1.307846366305987	1.307846366305159	-0.0178162714880904	-0.1745052094834204	0.4303517161287783	0.2165867668676279	-0.06189766007336017	0.01526221911924565	0.1048309740555192	-0.2426340928355935	-0.004572357987886451	-0.1316935729048906	0.006691418300750219	-0.3905998302310886	-0.3905998302310476	-0.02576954184349938	4.248783092597381e-05	-0.1191084219455249	-0.07260365198967265	-0.2026698944393676	0.04890107323453682	-0.00174649621508639	-0.2511595455915497	-0.06062571854045466	0.01290820530219488	0.1871265843754129	-49.25332069434569	5.643270226405583	-4.179544806979681	4.864662081927659	-523.9284826028106	-65.92163303873011	-0.02491952282076466	1.349394442871895	0.2749388425600111	1.501225154466014	-5.378885929719527	-0.1085732695932336	-1.497340721113289	0.3597494763381994	-4.807749704117963	-4.80774970412801	-0.486596460762672	0.01972143030247831	-1.181584702785924	-0.7945182205724587	-1.909389617011388e-08	-1.825566899580861e-07	1.597988368241586e-07	-1.819611457759729e-09	-3.669230152390544e-08	-1.073795828716548e-07	-3.615660222645725e-08
1.06	-0.3782225884618658	0.0279378344455163	0.6706084633575635	1.408733731384927	-0.3651428879112333	0.114351795063703	-0.4361595608160098	1.303700064669604	1.303700064668667	-0.01809884792391447	-0.1745044330297278	0.4291015211189309	0.2158206795715078	-0.04843723867105125	0.01806400135427015	0.1197796579739325	-0.2963414466940308	-0.005708549510740045	-0.1466118181944226	0.01065166472995044	-0.4386337992264907	-0.438633799226517	-0.03074607018291891	0.0001120088033453755	-0.1309251972963226	-0.08059200307847614	-0.2032520005619297	0.04905669258308096	-0.001811218391344404	-0.2493714197244428	-0.06135192021247329	0.01299334923660303	0.1875902325317842	-49.43853025549168	5.561547280718631	-4.078364995328825	4.794475287754155	-523.7923105689188	-65.74434569898919	-0.02493917825894279	1.350596119407908	0.2859585459760328	1.489867611703777	-5.373418111794461	-0.1248346285535147	-1.486067795570769	0.4233490182172918	-4.802715192132199	-4.802715192132171	-0.5196099873431287	-0.01839118433424695	-1.18345562842956	-0.814030018725956	-2.075627502732805e-08	-2.064278624638597e-07	1.751344401064121e-07	-4.582071525375286e-09	-4.200216619290554e-08	-1.209132781545122e-07	-4.020553615860269e-08
